<svg xmlns="http://www.w3.org/2000/svg" width="1200" height="630" viewBox="0 0 1200 630" role="img" aria-labelledby="title desc">
  <title id="title">Demetrio Tahoces - CV web</title>
  <desc id="desc">Open Graph card with an abstract technical grid.</desc>
  <defs>
    <linearGradient id="bg" x1="0" y1="0" x2="1" y2="1">
      <stop offset="0" stop-color="#07111f"/>
      <stop offset="0.55" stop-color="#0f2749"/>
      <stop offset="1" stop-color="#07111f"/>
    </linearGradient>
    <radialGradient id="glow-a" cx="22%" cy="18%" r="54%">
      <stop offset="0" stop-color="#38bdf8" stop-opacity="0.32"/>
      <stop offset="1" stop-color="#38bdf8" stop-opacity="0"/>
    </radialGradient>
    <radialGradient id="glow-b" cx="78%" cy="70%" r="48%">
      <stop offset="0" stop-color="#22c55e" stop-opacity="0.2"/>
      <stop offset="1" stop-color="#22c55e" stop-opacity="0"/>
    </radialGradient>
    <pattern id="grid" width="48" height="48" patternUnits="userSpaceOnUse">
      <path d="M48 0H0V48" fill="none" stroke="#94a3b8" stroke-opacity="0.09" stroke-width="1"/>
    </pattern>
  </defs>
  <rect width="1200" height="630" fill="url(#bg)"/>
  <rect width="1200" height="630" fill="url(#glow-a)"/>
  <rect width="1200" height="630" fill="url(#glow-b)"/>
  <rect width="1200" height="630" fill="url(#grid)"/>
  <g fill="none" stroke-linecap="round" stroke-linejoin="round">
    <path d="M792 142h124c47 0 85 38 85 85v176c0 47-38 85-85 85H792" stroke="#60a5fa" stroke-opacity="0.38" stroke-width="2"/>
    <path d="M824 198h68c22 0 40 18 40 40v154c0 22-18 40-40 40h-68" stroke="#22c55e" stroke-opacity="0.32" stroke-width="2"/>
    <path d="M760 226h-78m78 92h-126m126 92h-96" stroke="#93c5fd" stroke-opacity="0.42" stroke-width="2"/>
    <circle cx="682" cy="226" r="5" fill="#60a5fa" stroke="none"/>
    <circle cx="634" cy="318" r="5" fill="#22c55e" stroke="none"/>
    <circle cx="664" cy="410" r="5" fill="#60a5fa" stroke="none"/>
  </g>
  <g>
    <text x="92" y="220" fill="#e5edf7" font-family="Inter, Arial, sans-serif" font-size="76" font-weight="800" letter-spacing="0">Demetrio Tahoces</text>
    <text x="96" y="286" fill="#bfdbfe" font-family="Inter, Arial, sans-serif" font-size="34" font-weight="600" letter-spacing="0">Software Engineer</text>
    <text x="96" y="356" fill="#a7b4c8" font-family="Inter, Arial, sans-serif" font-size="27" font-weight="500" letter-spacing="0">Backend - IoT - Sistemas distribuidos - IA aplicada</text>
  </g>
  <g transform="translate(96 446)">
    <rect width="162" height="48" rx="24" fill="#0f172a" fill-opacity="0.74" stroke="#60a5fa" stroke-opacity="0.28"/>
    <text x="81" y="31" fill="#bfdbfe" text-anchor="middle" font-family="Inter, Arial, sans-serif" font-size="18" font-weight="700">DDD</text>
    <rect x="178" width="196" height="48" rx="24" fill="#0f172a" fill-opacity="0.74" stroke="#60a5fa" stroke-opacity="0.28"/>
    <text x="276" y="31" fill="#bfdbfe" text-anchor="middle" font-family="Inter, Arial, sans-serif" font-size="18" font-weight="700">Kubernetes</text>
    <rect x="390" width="142" height="48" rx="24" fill="#0f172a" fill-opacity="0.74" stroke="#22c55e" stroke-opacity="0.28"/>
    <text x="461" y="31" fill="#bbf7d0" text-anchor="middle" font-family="Inter, Arial, sans-serif" font-size="18" font-weight="700">RAG</text>
  </g>
</svg>
